<svg xmlns="http://www.w3.org/2000/svg" viewBox="0 0 720 445">
  <defs>
    <linearGradient id="bg" x1="0" x2="1" y1="0" y2="1">
      <stop offset="0" stop-color="#fffdf8"/>
      <stop offset="1" stop-color="#eee8db"/>
    </linearGradient>
    <filter id="shadow" x="-20%" y="-20%" width="140%" height="140%">
      <feDropShadow dx="0" dy="18" stdDeviation="22" flood-color="#315b33" flood-opacity=".16"/>
    </filter>
  </defs>
  <rect width="720" height="445" fill="url(#bg)"/>
  <circle cx="624" cy="72" r="78" fill="#eef3ec"/>
  <circle cx="95" cy="360" r="112" fill="#fbefd0"/>
  <g opacity=".55" fill="none" stroke="#d9cdbd" stroke-width="2">
    <path d="M70 72c60 24 114 24 162 0"/>
    <path d="M482 388c51-30 102-32 154-7"/>
  </g>
  <g transform="translate(74 72)" filter="url(#shadow)">
    <rect width="258" height="318" rx="28" fill="#ffffff"/>
    <rect x="22" y="22" width="214" height="274" rx="18" fill="#faf7ef" stroke="#e2d8c7"/>
    <rect x="44" y="48" width="170" height="44" rx="22" fill="#315b33"/>
    <text x="129" y="77" text-anchor="middle" font-family="system-ui, -apple-system, sans-serif" font-size="22" font-weight="700" fill="#ffffff">LINE公式</text>
    <rect x="44" y="122" width="135" height="30" rx="15" fill="#eef3ec"/>
    <rect x="80" y="166" width="134" height="30" rx="15" fill="#ffffff" stroke="#e2d8c7"/>
    <rect x="44" y="210" width="152" height="30" rx="15" fill="#eef3ec"/>
    <circle cx="55" cy="258" r="11" fill="#f4b51f"/>
    <circle cx="91" cy="258" r="11" fill="#e66f4f"/>
    <circle cx="127" cy="258" r="11" fill="#315b33"/>
  </g>
  <g transform="translate(292 104)" filter="url(#shadow)">
    <rect width="340" height="240" rx="18" fill="#ffffff"/>
    <rect x="26" y="28" width="288" height="42" rx="8" fill="#315b33"/>
    <text x="50" y="55" font-family="system-ui, -apple-system, sans-serif" font-size="19" font-weight="700" fill="#ffffff">予約カレンダー</text>
    <g transform="translate(26 94)" fill="#fbfaf5" stroke="#e2d8c7">
      <rect width="44" height="36" rx="7"/>
      <rect x="52" width="44" height="36" rx="7"/>
      <rect x="104" width="44" height="36" rx="7"/>
      <rect x="156" width="44" height="36" rx="7"/>
      <rect x="208" width="44" height="36" rx="7"/>
      <rect y="46" width="44" height="36" rx="7"/>
      <rect x="52" y="46" width="44" height="36" rx="7" fill="#eef3ec"/>
      <rect x="104" y="46" width="44" height="36" rx="7"/>
      <rect x="156" y="46" width="44" height="36" rx="7" fill="#fbefd0"/>
      <rect x="208" y="46" width="44" height="36" rx="7"/>
      <rect y="92" width="44" height="36" rx="7"/>
      <rect x="52" y="92" width="44" height="36" rx="7"/>
      <rect x="104" y="92" width="96" height="36" rx="7" fill="#315b33"/>
      <rect x="208" y="92" width="44" height="36" rx="7"/>
    </g>
    <rect x="224" y="178" width="90" height="34" rx="17" fill="#f4b51f"/>
    <text x="269" y="201" text-anchor="middle" font-family="system-ui, -apple-system, sans-serif" font-size="16" font-weight="700" fill="#151812">予約する</text>
  </g>
</svg>
